<svg height="20px" viewBox="-22 0 407 407.00877" width="20px" xmlns="http://www.w3.org/2000/svg"><path d="m322.246094 4.957031c-1.003906-3.316406-4.289063-5.390625-7.714844-4.878906l-57.761719 8.507813c-3.429687.503906-5.96875 3.445312-5.980469 6.910156v81.039062c-.015624 15.523438-12.59375 28.105469-28.117187 28.121094h-82.714844c-15.519531-.015625-28.101562-12.597656-28.117187-28.121094v-81.039062c-.003906-3.476563-2.558594-6.425782-6-6.921875l-57.726563-8.4921878c-3.425781-.5195312-6.714843 1.5585938-7.714843 4.8789068-32.507813 106.300781-45.492188 226.878906-38.601563 358.398437 1.21875 24.410156 21.332031 43.59375 45.769531 43.648437h267.511719c24.4375-.054687 44.554687-19.238281 45.769531-43.648437 6.890625-131.523437-6.09375-252.101563-38.601562-358.402344zm24.617187 357.648438c-.8125 16.976562-14.785156 30.34375-31.785156 30.398437h-267.527344c-16.996093-.054687-30.972656-13.421875-31.785156-30.398437-6.683594-127.488281 5.519531-244.46875 36.269531-347.796875l45.804688 6.75v74.996094c.023437 23.25 18.867187 42.089843 42.117187 42.117187h82.714844c23.25-.027344 42.09375-18.867187 42.117187-42.117187v-74.996094l45.804688-6.75c30.753906 103.328125 42.957031 220.308594 36.273438 347.796875zm-164.800781-119.757813 19.554688-28.617187c5.898437-8.667969 3.675781-20.472657-4.964844-26.402344l-28.625-19.554687c-7.566406-5.171876-17.746094-4.203126-24.203125 2.300781-6.457031 6.503906-7.351563 16.691406-2.125 24.21875-32.433594 16.386719-52.917969 49.59375-53.007813 85.933593 0 10.492188 8.503906 19 19 19 10.492188 0 19-8.507812 19-19-.023437-17.339843 7.703125-33.78125 21.0625-44.828124 1.519532 7.480468 7.367188 13.324218 14.851563 14.839843 7.480469 1.511719 15.140625-1.597656 19.449219-7.902343zm-18.511719-6.582031c-2.277343-1.5625-2.859375-4.671875-1.308593-6.953125l3.269531-4.800781c1.746093-2.5625 1.601562-5.96875-.359375-8.371094-1.964844-2.402344-5.273438-3.230469-8.132813-2.027344-26.863281 11.21875-44.347656 37.488281-44.324219 66.597657 0 2.761718-2.238281 5-5 5-2.761718 0-5-2.238282-5-5 .085938-34.664063 21.839844-65.578126 54.4375-77.367188 2.476563-.886719 4.246094-3.089844 4.578126-5.695312.332031-2.609376-.824219-5.183594-2.996094-6.667969l-4.230469-2.894531c-1.816406-1.238282-2.613281-3.515626-1.960937-5.613282.648437-2.097656 2.59375-3.527344 4.792968-3.519531 1 0 1.972656.304687 2.796875.871094l28.621094 19.550781c2.277344 1.5625 2.859375 4.671875 1.308594 6.953125l-19.554688 28.621094c-1.601562 2.207031-4.644531 2.78125-6.941406 1.3125zm91.394531-2.289063c-10.488281.011719-18.988281 8.511719-19 19 .015626 17.328126-7.710937 33.757813-21.066406 44.800782-1.519531-7.480469-7.367187-13.328125-14.851562-14.839844-7.480469-1.515625-15.140625 1.597656-19.449219 7.898438l-19.554687 28.621093c-5.898438 8.667969-3.675782 20.46875 4.96875 26.398438l28.621093 19.558593c7.566407 5.167969 17.746094 4.199219 24.203125-2.304687 6.457032-6.503906 7.351563-16.6875 2.125-24.214844 32.425782-16.390625 52.902344-49.59375 52.996094-85.921875-.011719-10.488281-8.511719-18.988281-19-19zm-49.449218 96.375c-2.46875.894532-4.226563 3.089844-4.558594 5.691407-.332031 2.601562.816406 5.167969 2.976562 6.652343l4.234376 2.898438c1.492187 1 2.332031 2.722656 2.203124 4.515625-.128906 1.792969-1.210937 3.375-2.832031 4.152344-1.621093.773437-3.535156.617187-5.007812-.410157l-28.621094-19.550781c-2.277344-1.5625-2.859375-4.667969-1.308594-6.953125l19.554688-28.617187c1.601562-2.21875 4.652343-2.792969 6.949219-1.3125 2.277343 1.5625 2.863281 4.667969 1.308593 6.949219l-3.269531 4.800781c-1.746094 2.5625-1.601562 5.972656.363281 8.375 1.960938 2.402343 5.269531 3.226562 8.128907 2.027343 26.863281-11.21875 44.347656-37.488281 44.324218-66.601562 0-2.761719 2.238282-5 5-5 2.761719 0 5 2.238281 5 5-.078125 34.675781-21.835937 65.597656-54.445312 77.382812zm0 0"/></svg>