<?xml version="1.0" encoding="iso-8859-1"?>
<!-- Generator: Adobe Illustrator 19.0.0, SVG Export Plug-In . SVG Version: 6.00 Build 0)  -->
<svg version="1.1" id="Capa_1" xmlns="http://www.w3.org/2000/svg" xmlns:xlink="http://www.w3.org/1999/xlink" x="0px" y="0px" width="20px" height="25px"
	 viewBox="0 0 447.976 447.976" style="enable-background:new 0 0 447.976 447.976;" xml:space="preserve">
<g>
	<g>
		<path d="M379.252,38.856c-3.728-13.664-16.512-22.88-30.672-22.88h-52.592v208c-17.6,0-32,14.4-32,32v16h-208v144
			c0,17.68,14.32,32,32,32h192c17.68,0,32-14.32,32-32v-144h36.592c14.176,0,26.976-9.232,30.688-22.912
			c7.968-29.312,12.72-65.632,12.72-105.088C391.988,104.504,387.236,68.168,379.252,38.856z"/>
	</g>
</g>
<g>
	<g>
		<rect x="103.988" y="207.972" width="128" height="48"/>
	</g>
</g>
<g>
	<g>
		<path d="M210.724,140.136h0.192L173.54,4.248c-1.552-5.664-9.584-5.664-11.152,0l-37.36,135.888h0.192
			c-1.04,3.792-1.792,7.696-1.792,11.808c0.016,12.24,4.96,23.312,12.944,31.36c0.368-3.184,1.072-6.352,2.512-9.408l23.936-51.216
			c2.08-4.448,8.4-4.448,10.48,0l23.936,51.216c1.408,3.008,2.112,6.128,2.496,9.232c7.888-8.032,12.784-19.04,12.784-31.184
			C212.516,147.832,211.78,143.912,210.724,140.136z"/>
	</g>
</g>
<g>
</g>
<g>
</g>
<g>
</g>
<g>
</g>
<g>
</g>
<g>
</g>
<g>
</g>
<g>
</g>
<g>
</g>
<g>
</g>
<g>
</g>
<g>
</g>
<g>
</g>
<g>
</g>
<g>
</g>
</svg>
