<svg id="Capa_1" enable-background="new 0 0 512.618 512.618" height="20px" viewBox="0 0 512.618 512.618" width="25px" xmlns="http://www.w3.org/2000/svg"><path d="m79.263 212.569h294.754v148.045h-294.754z" transform="matrix(.707 -.707 .707 .707 -136.269 244.199)"/><path d="m45.947 364.666-16.171 45.664 72.68 72.68 45.943-15.669c1.899-.648 3.631-1.688 5.124-3.019l-104.615-104.615c-1.292 1.45-2.311 3.124-2.961 4.959z"/><path d="m.861 491.981c-1.92 5.421-.571 11.462 3.471 15.552 2.865 2.899 6.727 4.456 10.67 4.456 1.621 0 3.255-.263 4.84-.803l50.977-17.386-52.139-52.139z"/><path d="m345.434 71.136h45.277v148.045h-45.277z" transform="matrix(.707 -.707 .707 .707 5.164 302.783)"/><path d="m502.367 66.051-55.186-55.186c-13.647-13.647-35.852-13.646-49.497 0l-44.732 44.732 104.683 104.683 44.732-44.732c6.611-6.61 10.251-15.4 10.251-24.749s-3.641-18.138-10.251-24.748z"/></svg>