<svg height="20px" viewBox="0 0 512 512" width="20px" xmlns="http://www.w3.org/2000/svg"><g id="solid"><path d="m368 480h-224v-16h224zm-56-443.69 15.914 7.073a71.993 71.993 0 0 1 -143.828 0l15.914-7.073v3.69a56 56 0 0 0 112 0zm-16-4.31v8a40 40 0 0 1 -80 0v-8zm-200.212 62.071a40.177 40.177 0 0 1 22.283-22.283l20.9-8.36c.093-.037.186-.076.278-.117l29.351-13.046a88 88 0 0 0 174.8 0l29.353 13.046c.092.041.185.08.278.117l20.9 8.36a40.177 40.177 0 0 1 22.283 22.283l37.876 94.69-51.422 32.139-10.045-16.742 35.493-21.3a8 8 0 1 0 -8.232-13.72l-35.493 21.3-1.531-2.552a8 8 0 0 0 -14.86 4.114v256h-224v-256a8 8 0 0 0 -14.86-4.116l-1.531 2.552-35.493-21.3a8 8 0 1 0 -8.232 13.72l35.493 21.3-10.045 16.744-51.42-32.137z"/></g></svg>