<?xml version="1.0" encoding="iso-8859-1"?>
<!-- Generator: Adobe Illustrator 19.0.0, SVG Export Plug-In . SVG Version: 6.00 Build 0)  -->
<svg version="1.1" id="Layer_1" xmlns="http://www.w3.org/2000/svg" xmlns:xlink="http://www.w3.org/1999/xlink" x="0px" y="0px" width="20px" height="20px"
	 viewBox="0 0 512 512" style="enable-background:new 0 0 512 512;" xml:space="preserve">
<g>
	<g>
		<path d="M324.689,283.035c-28.406,0-51.517,23.111-51.517,51.517c0,28.406,23.111,51.517,51.517,51.517h177.448V283.035H324.689z
			 M324.689,357.449c-12.646,0-22.896-10.251-22.896-22.896c0-12.646,10.251-22.897,22.896-22.897
			c12.646,0,22.897,10.251,22.897,22.897C347.586,347.198,337.335,357.449,324.689,357.449z"/>
	</g>
</g>
<g>
	<g>
		<path d="M324.689,248.69h177.448v-91.586H9.863V512h492.275v-91.586H324.689c-47.344,0-85.862-38.518-85.862-85.862
			S277.345,248.69,324.689,248.69z"/>
	</g>
</g>
<g>
	<g>
		<polygon points="309.424,0 186.665,122.76 432.184,122.76 		"/>
	</g>
</g>
<g>
	<g>
		<polygon points="132.097,3.803 103.299,122.76 138.094,122.76 162.38,98.474 232.696,28.157 		"/>
	</g>
</g>
<g>
</g>
<g>
</g>
<g>
</g>
<g>
</g>
<g>
</g>
<g>
</g>
<g>
</g>
<g>
</g>
<g>
</g>
<g>
</g>
<g>
</g>
<g>
</g>
<g>
</g>
<g>
</g>
<g>
</g>
</svg>
