<?xml version="1.0" encoding="iso-8859-1"?>
<!-- Generator: Adobe Illustrator 19.0.0, SVG Export Plug-In . SVG Version: 6.00 Build 0)  -->
<svg version="1.1" id="Capa_1" xmlns="http://www.w3.org/2000/svg" xmlns:xlink="http://www.w3.org/1999/xlink" x="0px" y="0px" width="20px" height="20px"
	 viewBox="0 0 512 512" style="enable-background:new 0 0 512 512;" xml:space="preserve">
<g>
	<g>
		<path d="M461.979,235.893c-21.738-21.738-57.1-21.738-78.828-0.01l-1.06,1.06v-72.626C382.091,73.716,308.385,0,217.783,0
			S53.475,73.716,53.475,164.318v257.641h-0.49c-10.624,0-19.267,8.643-19.267,19.267v51.498c0,10.624,8.643,19.277,19.267,19.277
			h191.647v-60.031v-30.011h30.011v30.011V512h25.209v-60.031v-30.011h30.011v30.011V512h52.719
			c10.624,0,19.267-8.653,19.267-19.277v-51.498c0-10.624-8.643-19.267-19.267-19.267h-0.49v-28.96l79.778-78.168l0.11-0.11
			C483.716,292.983,483.716,257.621,461.979,235.893z"/>
	</g>
</g>
<g>
</g>
<g>
</g>
<g>
</g>
<g>
</g>
<g>
</g>
<g>
</g>
<g>
</g>
<g>
</g>
<g>
</g>
<g>
</g>
<g>
</g>
<g>
</g>
<g>
</g>
<g>
</g>
<g>
</g>
</svg>
